<?xml version="1.0" encoding="UTF-8" standalone="no"?>
<svg xmlns="http://www.w3.org/2000/svg" xmlns:xlink="http://www.w3.org/1999/xlink" viewBox="0 308.5 595.3 213" width="300" height="96" style="border-bottom-color:rgb(9, 164, 215);border-left-color:rgb(9, 164, 215);border-right-color:rgb(9, 164, 215);border-top-color:rgb(9, 164, 215);color:rgb(9, 164, 215);cursor:pointer;height:30px;min-width:95px;outline-color:rgb(9, 164, 215);text-decoration:none solid rgb(9, 164, 215);text-decoration-color:rgb(9, 164, 215);vertical-align:middle;width:95px;column-rule-color:rgb(9, 164, 215);perspective-origin:47.5px 15px;-webkit-text-emphasis-color:rgb(9, 164, 215);-webkit-text-fill-color:rgb(9, 164, 215);-webkit-text-stroke-color:rgb(9, 164, 215);transform-origin:47.5px 15px;fill:rgb(9, 164, 215);caret-color:rgb(9, 164, 215);" class="_60105416" version="1.1">
  <path fill="currentColor" d="M73.7 395.2c-13.5-1.6-14.5-19.7-31.8-18.1-8.4 0-16.2 3.5-16.2 11.2 0 11.6 17.9 12.7 28.7 15.6 18.4 5.6 36.2 9.4 36.2 29.4 0 25.4-19.9 34.2-46.2 34.2-22 0-44.3-7.8-44.3-28 0-5.6 5.4-10 10.6-10 6.6 0 8.9 2.8 11.2 7.4 5.1 9 10.8 13.8 25 13.8 9 0 18.2-3.4 18.2-11.2 0-11.1-11.3-13.5-23-16.2-20.7-5.8-38.5-8.8-40.6-31.8-2.2-39.2 79.5-40.7 84.2-6.3-.1 6.2-5.9 10-12 10zm97.2-34.4c28.7 0 45 24 45 53.6 0 29.7-15.8 53.6-45 53.6-16.2 0-26.3-6.9-33.6-17.5v39.2c0 11.8-3.8 17.5-12.4 17.5-10.5 0-12.4-6.7-12.4-17.5v-114c0-9.3 3.9-15 12.4-15 8 0 12.4 6.3 12.4 15v3.2c8.1-10.2 17.4-18.1 33.6-18.1zm-6.8 86.8c16.8 0 24.3-15.5 24.3-33.6 0-17.7-7.6-33.6-24.3-33.6-17.5 0-25.6 14.4-25.6 33.6 0 18.7 8.2 33.6 25.6 33.6zm71.3-58.8c0-20.6 23.7-28 46.7-28 32.3 0 45.6 9.4 45.6 40.6v30c0 7.1 4.4 21.3 4.4 25.6 0 6.5-6 10.6-12.4 10.6-7.1 0-12.4-8.4-16.2-14.4-10.5 8.4-21.6 14.4-38.6 14.4-18.8 0-33.6-11.1-33.6-29.4 0-16.2 11.6-25.5 25.6-28.7 0 .1 45-10.6 45-10.7 0-13.8-4.9-19.9-19.4-19.9-12.8 0-19.3 3.5-24.3 11.2-4 5.8-3.5 9.3-11.2 9.3-6.2-.1-11.6-4.3-11.6-10.6zm38.4 61.9c19.7 0 28-10.4 28-31.1v-4.4c-5.3 1.8-26.7 7.1-32.5 8-6.2 1.2-12.4 5.8-12.4 13.1.2 8 8.4 14.4 16.9 14.4zm144.7-129c27.8 0 57.9 16.6 57.9 43 0 6.8-5.1 12.4-11.8 12.4-9.1 0-10.4-4.9-14.4-11.8-6.7-12.3-14.6-20.5-31.8-20.5-26.6-.2-38.5 22.6-38.5 51 0 28.6 9.9 49.2 37.4 49.2 18.3 0 28.4-10.6 33.6-24.3 2.1-6.3 5.9-12.4 13.8-12.4 6.2 0 12.4 6.3 12.4 13.1 0 28-28.6 47.4-58 47.4-32.2 0-50.4-13.6-60.4-36.2-4.9-10.8-8-22-8-37.4-.2-43.4 25.1-73.5 67.8-73.5zm159 39.1c7.1 0 11.2 4.6 11.2 11.8 0 2.9-2.3 8.7-3.2 11.8l-34.2 89.9c-7.6 19.5-13.3 33-39.2 33-12.3 0-23-1.1-23-11.8 0-6.2 4.7-9.3 11.2-9.3 1.2 0 3.2.6 4.4.6 1.9 0 3.2.6 4.4.6 13 0 14.8-13.3 19.4-22.5l-33-81.7c-1.9-4.4-3.2-7.4-3.2-10 0-7.2 5.6-12.4 13.1-12.4 8.4 0 11.7 6.6 13.8 13.8l21.8 64.8 21.8-59.9c3.3-9.3 3.6-18.7 14.7-18.7z" style="border-bottom-color:rgb(9, 164, 215);border-left-color:rgb(9, 164, 215);border-right-color:rgb(9, 164, 215);border-top-color:rgb(9, 164, 215);color:rgb(9, 164, 215);cursor:pointer;height:auto;max-width:none;outline-color:rgb(9, 164, 215);overflow-x:visible;overflow-y:visible;text-decoration:none solid rgb(9, 164, 215);text-decoration-color:rgb(9, 164, 215);width:auto;column-rule-color:rgb(9, 164, 215);perspective-origin:0px 0px;-webkit-text-emphasis-color:rgb(9, 164, 215);-webkit-text-fill-color:rgb(9, 164, 215);-webkit-text-stroke-color:rgb(9, 164, 215);transform-origin:0px 0px;fill:rgb(9, 164, 215);d:path(&quot;M 73.7 395.2 C 60.2 393.6 59.2 375.5 41.9 377.1 C 33.5 377.1 25.7 380.6 25.7 388.3 C 25.7 399.9 43.6 401 54.4 403.9 C 72.8 409.5 90.6 413.3 90.6 433.3 C 90.6 458.7 70.7 467.5 44.4 467.5 C 22.4 467.5 0.0999985 459.7 0.0999985 439.5 C 0.0999985 433.9 5.5 429.5 10.7 429.5 C 17.3 429.5 19.6 432.3 21.9 436.9 C 27 445.9 32.7 450.7 46.9 450.7 C 55.9 450.7 65.1 447.3 65.1 439.5 C 65.1 428.4 53.8 426 42.1 423.3 C 21.4 417.5 3.6 414.5 1.5 391.5 C -0.7 352.3 81 350.8 85.7 385.2 C 85.6 391.4 79.8 395.2 73.7 395.2 Z M 170.9 360.8 C 199.6 360.8 215.9 384.8 215.9 414.4 C 215.9 444.1 200.1 468 170.9 468 C 154.7 468 144.6 461.1 137.3 450.5 V 489.7 C 137.3 501.5 133.5 507.2 124.9 507.2 C 114.4 507.2 112.5 500.5 112.5 489.7 V 375.7 C 112.5 366.4 116.4 360.7 124.9 360.7 C 132.9 360.7 137.3 367 137.3 375.7 V 378.9 C 145.4 368.7 154.7 360.8 170.9 360.8 Z M 164.1 447.6 C 180.9 447.6 188.4 432.1 188.4 414 C 188.4 396.3 180.8 380.4 164.1 380.4 C 146.6 380.4 138.5 394.8 138.5 414 C 138.5 432.7 146.7 447.6 164.1 447.6 Z M 235.4 388.8 C 235.4 368.2 259.1 360.8 282.1 360.8 C 314.4 360.8 327.7 370.2 327.7 401.4 V 431.4 C 327.7 438.5 332.1 452.7 332.1 457 C 332.1 463.5 326.1 467.6 319.7 467.6 C 312.6 467.6 307.3 459.2 303.5 453.2 C 293 461.6 281.9 467.6 264.9 467.6 C 246.1 467.6 231.3 456.5 231.3 438.2 C 231.3 422 242.9 412.7 256.9 409.5 C 256.9 409.6 301.9 398.9 301.9 398.8 C 301.9 385 297 378.9 282.5 378.9 C 269.7 378.9 263.2 382.4 258.2 390.1 C 254.2 395.9 254.7 399.4 247 399.4 C 240.8 399.3 235.4 395.1 235.4 388.8 Z M 273.8 450.7 C 293.5 450.7 301.8 440.3 301.8 419.6 V 415.2 C 296.5 417 275.1 422.3 269.3 423.2 C 263.1 424.4 256.9 429 256.9 436.3 C 257.1 444.3 265.3 450.7 273.8 450.7 Z M 418.5 321.7 C 446.3 321.7 476.4 338.3 476.4 364.7 C 476.4 371.5 471.3 377.1 464.6 377.1 C 455.5 377.1 454.2 372.2 450.2 365.3 C 443.5 353 435.6 344.8 418.4 344.8 C 391.8 344.6 379.9 367.4 379.9 395.8 C 379.9 424.4 389.8 445 417.3 445 C 435.6 445 445.7 434.4 450.9 420.7 C 453 414.4 456.8 408.3 464.7 408.3 C 470.9 408.3 477.1 414.6 477.1 421.4 C 477.1 449.4 448.5 468.8 419.1 468.8 C 386.9 468.8 368.7 455.2 358.7 432.6 C 353.8 421.8 350.7 410.6 350.7 395.2 C 350.5 351.8 375.8 321.7 418.5 321.7 Z M 577.5 360.8 C 584.6 360.8 588.7 365.4 588.7 372.6 C 588.7 375.5 586.4 381.3 585.5 384.4 L 551.3 474.3 C 543.7 493.8 538 507.3 512.1 507.3 C 499.8 507.3 489.1 506.2 489.1 495.5 C 489.1 489.3 493.8 486.2 500.3 486.2 C 501.5 486.2 503.5 486.8 504.7 486.8 C 506.6 486.8 507.9 487.4 509.1 487.4 C 522.1 487.4 523.9 474.1 528.5 464.9 L 495.5 383.2 C 493.6 378.8 492.3 375.8 492.3 373.2 C 492.3 366 497.9 360.8 505.4 360.8 C 513.8 360.8 517.1 367.4 519.2 374.6 L 541 439.4 L 562.8 379.5 C 566.1 370.2 566.4 360.8 577.5 360.8 Z&quot;);caret-color:rgb(9, 164, 215);"></path>
</svg>
